<?xml version="1.0" standalone="no"?>
<!DOCTYPE svg PUBLIC "-//W3C//DTD SVG 20010904//EN"
 "http://www.w3.org/TR/2001/REC-SVG-20010904/DTD/svg10.dtd">
<svg version="1.0" xmlns="http://www.w3.org/2000/svg"
 width="658.000000pt" height="1024.000000pt" viewBox="0 0 658.000000 1024.000000"
 preserveAspectRatio="xMidYMid meet">

<g transform="translate(0.000000,1024.000000) scale(0.100000,-0.100000)"
fill="#000000" stroke="none">
<path fill="#ff1111" d="M160 9846 c0 -3 31 -100 69 -218 348 -1069 501 -1541 611 -1878 229
-707 349 -1076 1010 -3110 358 -1103 735 -2261 836 -2575 102 -314 246 -757
321 -985 74 -228 162 -498 195 -600 33 -102 61 -186 63 -188 2 -2 49 137 105
310 195 600 353 1086 480 1478 71 217 334 1027 585 1800 251 773 541 1666 645
1985 104 319 243 749 310 955 170 523 347 1070 585 1800 333 1025 395 1217
395 1224 0 3 -1397 6 -3105 6 -1708 0 -3105 -2 -3105 -4z m6000 -150 c0 -5
-61 -49 -1000 -731 -355 -257 -717 -521 -805 -585 -88 -65 -368 -268 -623
-453 l-463 -336 78 -57 c43 -32 251 -184 463 -338 212 -153 540 -392 730 -531
190 -138 384 -279 433 -314 48 -35 87 -66 87 -69 0 -5 -381 -1180 -535 -1652
-41 -124 -130 -398 -199 -610 -236 -729 -778 -2396 -893 -2750 -64 -195 -127
-390 -140 -433 -13 -44 -26 -77 -28 -75 -2 1 -94 282 -205 623 -444 1365 -597
1836 -712 2190 -66 204 -177 548 -248 765 -117 358 -272 838 -447 1375 -35
110 -91 281 -124 381 -32 99 -59 183 -59 186 0 4 21 22 47 41 1129 817 1707
1237 1725 1255 15 16 -58 71 -1060 799 -593 430 -1237 897 -1432 1039 -195
141 -362 263 -370 270 -12 12 426 14 2883 14 1593 0 2897 -2 2897 -4z"/>

<path fill="#0000FF" d="M1766 9430 c-1 -3 -2 -90 -1 -195 0 -139 4 -197 14 -215 57 -105 196
-139 308 -74 73 42 83 78 83 297 l0 187 -55 0 -55 0 0 -185 c0 -177 -1 -185
-22 -205 -33 -30 -111 -28 -143 5 -25 24 -25 26 -25 204 l0 179 -51 4 c-28 1
-52 1 -53 -2z"/>

<path fill="#0000FF" d="M3651 9430 c-75 -18 -125 -78 -124 -150 1 -88 45 -127 170 -155 80
-18 103 -38 83 -75 -25 -46 -88 -53 -144 -15 -20 14 -40 25 -44 25 -4 0 -22
-13 -41 -29 l-35 -28 27 -27 c122 -122 347 -62 347 93 0 55 -27 104 -68 125
-16 8 -59 23 -96 32 -91 23 -117 51 -80 88 34 35 92 33 132 -4 l22 -20 40 26
c22 15 40 30 40 34 0 17 -71 69 -107 79 -43 12 -73 12 -122 1z"/>

<path fill="#0000FF" d="M4512 9426 c-74 -24 -112 -73 -112 -146 0 -85 48 -129 165 -154 92
-19 118 -53 74 -97 -17 -17 -30 -20 -66 -16 -25 3 -58 15 -75 27 l-29 22 -35
-24 c-41 -28 -42 -37 -6 -71 104 -100 303 -60 332 67 4 20 4 52 0 72 -15 64
-60 96 -184 127 -30 7 -54 21 -63 34 -14 20 -13 24 11 48 32 32 72 32 118 2
l34 -24 35 24 c19 13 34 28 33 33 -1 6 -2 14 -2 20 -4 19 -91 61 -138 65 -28
3 -68 -1 -92 -9z"/>

<path fill="#0000FF" d="M2580 9165 l0 -255 57 0 56 0 -6 152 -6 151 39 -96 c58 -143 55 -139
103 -135 l41 3 47 114 47 114 -6 -152 -5 -151 57 0 56 0 0 255 0 255 -58 0
-58 0 -59 -141 c-33 -77 -62 -142 -65 -144 -3 -2 -32 61 -65 141 l-60 144 -57
0 -58 0 0 -255z"/>

<path fill="#0000FF" d="M3247 6953 c-4 -3 -7 -46 -7 -93 0 -64 4 -91 14 -99 24 -20 34 15 31
104 -1 44 -3 83 -4 88 -1 9 -25 9 -34 0z"/>
<path fill="#0000FF" d="M2895 6860 c-7 -11 50 -120 82 -158 13 -15 22 -19 32 -13 12 8 5 25
-35 95 -46 82 -65 99 -79 76z"/>
<path fill="#0000FF" d="M3556 6789 c-44 -75 -53 -116 -23 -107 17 6 109 166 102 178 -15 24
-35 5 -79 -71z"/>
<path fill="#0000FF" d="M2636 6602 c-2 -4 -2 -13 2 -18 11 -17 149 -94 167 -94 37 0 6 37
-65 77 -76 43 -95 50 -104 35z"/>
<path fill="#0000FF" d="M3783 6566 c-46 -26 -73 -47 -73 -58 0 -11 7 -18 18 -18 26 1 157 84
160 103 5 27 -26 19 -105 -27z"/>
<path fill="#0000FF" d="M2540 6240 c0 -20 5 -21 103 -18 83 2 102 6 102 18 0 12 -19 16 -102
18 -98 3 -103 2 -103 -18z"/>
<path fill="#0000FF" d="M3780 6240 c0 -20 5 -21 103 -18 83 2 102 6 102 18 0 12 -19 16 -102
18 -98 3 -103 2 -103 -18z"/>

<path fill="#0000FF" d="M2921 6350 l-82 -251 206 -598 c113 -330 205 -605 205 -613 0 -8 -31
-104 -69 -214 -38 -109 -119 -345 -181 -524 -62 -179 -116 -329 -120 -334 -5
-4 -19 8 -32 28 -12 20 -26 36 -30 36 -5 0 -8 -60 -8 -132 0 -73 -3 -143 -6
-155 -10 -38 10 -26 51 30 22 28 64 83 93 120 30 38 52 70 50 72 -2 2 -25 -2
-51 -10 -26 -8 -47 -11 -47 -8 0 4 32 99 71 212 221 640 272 787 280 795 5 6
9 -330 9 -782 0 -436 -4 -792 -8 -792 -4 0 -23 11 -42 25 -18 14 -35 23 -38
21 -3 -4 85 -287 93 -294 5 -5 96 279 93 290 -2 5 -19 -3 -38 -17 -18 -14 -38
-25 -42 -25 -4 0 -8 356 -8 792 0 475 4 788 9 782 5 -5 43 -108 84 -229 41
-121 118 -345 171 -497 64 -187 91 -278 82 -278 -7 0 -27 5 -45 11 -18 6 -34
9 -37 7 -4 -4 148 -211 177 -242 5 -6 9 54 9 147 0 89 -4 157 -9 157 -5 0 -19
-16 -31 -35 -12 -19 -25 -35 -28 -35 -4 0 -32 75 -63 168 -32 92 -114 331
-183 532 -69 201 -126 371 -126 378 0 7 93 282 206 611 l205 599 -81 251 -81
251 -264 0 -263 0 -81 -250z m534 232 c-6 -5 -51 -21 -101 -36 l-91 -29 -96
32 c-54 18 -97 35 -97 37 0 2 89 4 197 4 108 0 193 -4 188 -8z m-320 -36 c55
-17 99 -36 99 -41 -1 -9 -209 -165 -219 -165 -3 0 -5 54 -5 120 0 90 3 120 13
119 6 0 57 -15 112 -33z m385 -86 c0 -66 -2 -120 -6 -120 -15 0 -224 164 -217
170 9 9 190 68 211 69 9 1 12 -29 12 -119z m-520 -33 l0 -103 -60 -82 c-33
-45 -62 -82 -64 -82 -3 0 23 83 57 185 34 102 63 185 64 185 2 0 3 -46 3 -103z
m604 -103 c30 -92 51 -163 46 -158 -5 5 -34 42 -64 83 l-56 75 1 105 c0 122
-3 127 73 -105z m-172 57 c27 -19 44 -39 39 -44 -4 -4 -39 -7 -76 -5 l-68 3
-23 70 c-13 39 -24 74 -24 78 0 8 46 -22 152 -102z m-212 20 l-21 -71 -81 0
c-50 0 -78 4 -72 9 23 23 188 140 192 137 2 -2 -6 -36 -18 -75z m90 -63 c0 -4
-20 -8 -45 -8 -51 0 -52 2 -30 75 25 84 26 84 51 11 13 -39 24 -74 24 -78z
m-120 -26 c0 -10 -21 -75 -26 -81 -2 -2 -26 13 -54 34 -28 21 -53 35 -56 32
-5 -4 22 -25 99 -78 8 -6 -39 -169 -48 -169 -3 0 -21 53 -41 118 -20 64 -39
123 -41 130 -3 8 0 10 10 6 8 -3 17 -2 20 3 7 11 137 16 137 5z m144 -39 c9
-26 16 -50 16 -54 0 -4 -19 -21 -41 -38 l-42 -30 -44 31 c-40 29 -43 35 -37
62 16 73 19 76 78 76 l54 0 16 -47z m156 43 c0 -7 -112 -86 -121 -86 -8 0 -29
55 -29 76 0 11 19 14 75 14 41 0 75 -2 75 -4z m-22 -145 l-42 -133 -28 83
c-15 46 -24 87 -20 91 13 13 127 96 129 94 1 -1 -16 -62 -39 -135z m-418 -2
c23 -72 40 -132 38 -133 -3 -3 -220 65 -227 70 -4 4 137 194 144 194 2 0 22
-59 45 -131z m547 43 c35 -48 64 -91 65 -97 3 -9 -212 -86 -220 -80 -5 5 81
265 87 264 3 0 34 -39 68 -87z m-368 -50 l24 -19 -57 -43 c-31 -24 -59 -40
-62 -37 -3 3 4 35 16 71 23 71 24 71 79 28z m153 -32 c10 -30 17 -58 15 -63
-2 -7 -117 69 -117 78 0 7 66 44 74 42 5 -2 18 -27 28 -57z m-46 -46 c36 -26
63 -48 60 -51 -5 -6 -257 -6 -262 0 -5 4 117 95 129 96 5 1 38 -20 73 -45z
m-76 -709 c0 -244 -4 -414 -9 -405 -9 15 -381 1094 -381 1104 0 3 88 -59 195
-137 l195 -141 0 -421z m367 699 c-17 -17 -312 -231 -315 -228 -3 2 85 128
114 162 3 4 185 69 198 71 5 0 7 -2 3 -5z m-616 -30 l87 -27 62 -84 c34 -47
57 -84 51 -82 -5 2 -45 30 -88 61 -43 31 -109 80 -148 107 -38 28 -66 51 -61
51 5 0 48 -12 97 -26z m646 14 c-2 -7 -86 -251 -187 -543 -100 -291 -186 -537
-191 -545 -5 -9 -9 159 -9 403 0 385 1 418 18 432 41 35 358 264 366 265 4 0
6 -6 3 -12z m-269 -80 c-19 -26 -101 -137 -115 -157 -5 -8 -36 28 -97 112
l-57 77 147 0 146 0 -24 -32z"/>
</g>
</svg>